# xmcd
#
# Track frame offsets:
#	150
#	12995
#	23848
#	35510
#	46689
#	55428
#	68165
#	81400
#	94788
#	104110
#
# Disc length: 1599 seconds
# Revision: 0
# Processed by: cddbd v1.5.2PL0 Copyright (c) Steve Scherf et al.
# Submitted via: dBpowerAMP V12.0
#
DISCID=82063d0a
DTITLE=Gram Parsons' International Submarine Band - Safe at Home
DYEAR=1968
DGENRE=Country
TTITLE0=Blue Eyes
TTITLE1=I Must Have Been Somebody Else You've Known
TTITLE2=A Satisfied Mind
TTITLE3=Folsom Prison Blues
TTITLE4=That's All Right
TTITLE5=Millers Cave
TTITLE6=I Still Miss Someone
TTITLE7=Luxury Liner
TTITLE8=Strong Boy
TTITLE9=Do You Know How it Feels to be Lonesome
EXTD=
EXTT0=
EXTT1=
EXTT2=
EXTT3=
EXTT4=
EXTT5=
EXTT6=
EXTT7=
EXTT8=
EXTT9=
PLAYORDER=
